<?xml version="1.0" encoding="UTF-8"?>
<svg width="132px" height="23px" viewBox="0 0 132 23" version="1.1" xmlns="http://www.w3.org/2000/svg" xmlns:xlink="http://www.w3.org/1999/xlink">
    <!-- Generator: Sketch 55.2 (78181) - https://sketchapp.com -->
    <title>paaatterns</title>
    <desc>Created with Sketch.</desc>
    <g id="Symbols" stroke="none" stroke-width="1" fill="none" fill-rule="evenodd">
        <g id="Header" transform="translate(-25.000000, -19.000000)" fill="#000000" fill-rule="nonzero">
            <path d="M25.5092315,41.1136315 L25.5092315,22.3636494 L29.2379211,22.3636494 L29.2379211,24.6541301 L29.4066,24.6541301 C29.9126364,23.5444011 31.0046098,22.1860927 33.2862127,22.1860927 C36.2780423,22.1860927 38.8082245,24.5120848 38.8082245,29.1995803 C38.8082245,33.7627862 36.3845763,36.2219458 33.2773349,36.2219458 C31.0756325,36.2219458 29.9303921,34.9524158 29.4066,33.8160532 L29.2911881,33.8160532 L29.2911881,41.1136315 L25.5092315,41.1136315 Z M29.2112876,29.1818247 C29.2112876,31.6143508 30.2588719,33.2123606 32.0788275,33.2123606 C33.9342945,33.2123606 34.9463674,31.5610838 34.9463674,29.1818247 C34.9463674,26.8203213 33.9520502,25.1956779 32.0788275,25.1956779 C30.2411162,25.1956779 29.2112876,26.7492986 29.2112876,29.1818247 Z M45.2091568,36.2574571 C42.6079519,36.2574571 40.6814622,34.8902709 40.6814622,32.1914099 C40.6814622,29.1463134 43.1051105,28.2407744 45.8039716,27.9921951 C48.1743528,27.7613715 49.1065252,27.6459597 49.1065252,26.7670543 L49.1065252,26.7137873 C49.1065252,25.5951804 48.3696651,24.9470986 47.0823794,24.9470986 C45.7240711,24.9470986 44.9161883,25.612936 44.6587312,26.518475 L41.1608652,26.2343843 C41.6846573,23.7485912 43.8330928,22.1860927 47.1001351,22.1860927 C50.1363538,22.1860927 52.8884818,23.5532789 52.8884818,26.8025656 L52.8884818,36 L49.3018375,36 L49.3018375,34.1090217 L49.1953036,34.1090217 C48.5294661,35.3785517 47.2244247,36.2574571 45.2091568,36.2574571 Z M46.2922523,33.6473744 C47.952407,33.6473744 49.1331587,32.555401 49.1331587,31.12607 L49.1331587,29.6789833 C48.6803893,29.9808296 47.3309587,30.1761419 46.5053203,30.2915537 C45.1736455,30.4779882 44.29474,31.0017803 44.29474,32.0671202 C44.29474,33.1058266 45.1292563,33.6473744 46.2922523,33.6473744 Z M59.7155488,36.2574571 C57.1143439,36.2574571 55.1878543,34.8902709 55.1878543,32.1914099 C55.1878543,29.1463134 57.6115025,28.2407744 60.3103636,27.9921951 C62.6807449,27.7613715 63.6129173,27.6459597 63.6129173,26.7670543 L63.6129173,26.7137873 C63.6129173,25.5951804 62.8760572,24.9470986 61.5887715,24.9470986 C60.2304631,24.9470986 59.4225804,25.612936 59.1651232,26.518475 L55.6672572,26.2343843 C56.1910493,23.7485912 58.3394848,22.1860927 61.6065271,22.1860927 C64.6427458,22.1860927 67.3948739,23.5532789 67.3948739,26.8025656 L67.3948739,36 L63.8082296,36 L63.8082296,34.1090217 L63.7016956,34.1090217 C63.0358582,35.3785517 61.7308168,36.2574571 59.7155488,36.2574571 Z M60.7986444,33.6473744 C62.4587991,33.6473744 63.6395508,32.555401 63.6395508,31.12607 L63.6395508,29.6789833 C63.1867813,29.9808296 61.8373508,30.1761419 61.0117124,30.2915537 C59.6800375,30.4779882 58.8011321,31.0017803 58.8011321,32.0671202 C58.8011321,33.1058266 59.6356483,33.6473744 60.7986444,33.6473744 Z M74.2219409,36.2574571 C71.620736,36.2574571 69.6942463,34.8902709 69.6942463,32.1914099 C69.6942463,29.1463134 72.1178946,28.2407744 74.8167556,27.9921951 C77.1871369,27.7613715 78.1193093,27.6459597 78.1193093,26.7670543 L78.1193093,26.7137873 C78.1193093,25.5951804 77.3824492,24.9470986 76.0951635,24.9470986 C74.7368552,24.9470986 73.9289724,25.612936 73.6715153,26.518475 L70.1736493,26.2343843 C70.6974414,23.7485912 72.8458768,22.1860927 76.1129192,22.1860927 C79.1491379,22.1860927 81.9012659,23.5532789 81.9012659,26.8025656 L81.9012659,36 L78.3146216,36 L78.3146216,34.1090217 L78.2080876,34.1090217 C77.5422502,35.3785517 76.2372088,36.2574571 74.2219409,36.2574571 Z M75.3050364,33.6473744 C76.9651911,33.6473744 78.1459428,32.555401 78.1459428,31.12607 L78.1459428,29.6789833 C77.6931734,29.9808296 76.3437428,30.1761419 75.5181044,30.2915537 C74.1864295,30.4779882 73.3075241,31.0017803 73.3075241,32.0671202 C73.3075241,33.1058266 74.1420404,33.6473744 75.3050364,33.6473744 Z M92.0930314,22.3636494 L92.0930314,25.2045557 L89.5273378,25.2045557 L89.5273378,31.8096631 C89.5273378,32.8572473 90.05113,33.141338 90.8057457,33.141338 C91.160859,33.141338 91.5603615,33.0525596 91.746796,33.0170483 L92.3416107,35.8313212 C91.9598639,35.9556108 91.267393,36.1509232 90.2908314,36.1864345 C87.5475812,36.3018463 85.7276256,34.9790493 85.7453812,32.3068217 L85.7453812,25.2045557 L83.8810364,25.2045557 L83.8810364,22.3636494 L85.7453812,22.3636494 L85.7453812,19.096607 L89.5273378,19.096607 L89.5273378,22.3636494 L92.0930314,22.3636494 Z M101.805389,22.3636494 L101.805389,25.2045557 L99.2396958,25.2045557 L99.2396958,31.8096631 C99.2396958,32.8572473 99.7634879,33.141338 100.518104,33.141338 C100.873217,33.141338 101.272719,33.0525596 101.459154,33.0170483 L102.053969,35.8313212 C101.672222,35.9556108 100.979751,36.1509232 100.003189,36.1864345 C97.2599392,36.3018463 95.4399835,34.9790493 95.4577392,32.3068217 L95.4577392,25.2045557 L93.5933944,25.2045557 L93.5933944,22.3636494 L95.4577392,22.3636494 L95.4577392,19.096607 L99.2396958,19.096607 L99.2396958,22.3636494 L101.805389,22.3636494 Z M110.479041,36.266335 C106.279826,36.266335 103.714133,33.5674739 103.714133,29.2439695 C103.714133,25.0358769 106.315338,22.1860927 110.328118,22.1860927 C113.932518,22.1860927 116.737913,24.4765735 116.737913,29.110802 L116.737913,30.1495084 L107.4517,30.1495084 L107.4517,30.1583863 C107.4517,32.1914099 108.650207,33.4431843 110.541186,33.4431843 C111.801838,33.4431843 112.7784,32.9016365 113.160146,31.8629301 L116.658012,32.0937537 C116.125342,34.623936 113.852617,36.266335 110.479041,36.266335 Z M107.4517,27.8057607 L113.177902,27.8057607 C113.169024,26.1811173 112.032662,25.0092434 110.390263,25.0092434 C108.712352,25.0092434 107.531601,26.25214 107.4517,27.8057607 Z M119.205964,36 L119.205964,22.3636494 L122.872509,22.3636494 L122.872509,24.7429085 L123.014555,24.7429085 C123.511713,23.0561203 124.763488,22.1683371 126.290475,22.1683371 C126.672222,22.1683371 127.142747,22.221604 127.480104,22.3015045 L127.480104,25.6573252 C127.124991,25.5419134 126.405887,25.4531351 125.882094,25.4531351 C124.213062,25.4531351 122.987921,26.6072533 122.987921,28.2851636 L122.987921,36 L119.205964,36 Z M133.206316,28.1164848 L133.206316,36 L129.424359,36 L129.424359,22.3636494 L133.028759,22.3636494 L133.028759,24.769542 L133.18856,24.769542 C133.801131,23.18041 135.265973,22.1860927 137.290119,22.1860927 C140.131025,22.1860927 141.99537,24.1392159 141.99537,27.3174799 L141.99537,36 L138.213413,36 L138.213413,27.9921951 C138.222291,26.3231626 137.307875,25.3288454 135.789765,25.3288454 C134.262778,25.3288454 133.215194,26.358674 133.206316,28.1164848 Z M156.315329,26.25214 L152.852974,26.465208 C152.66654,25.5863025 151.88529,24.8671981 150.571371,24.8671981 C149.399497,24.8671981 148.476203,25.3998681 148.48508,26.2166286 C148.476203,26.8735882 148.946728,27.308602 150.216258,27.5838148 L152.684295,28.0809735 C155.329889,28.6225212 156.617175,29.803273 156.626053,31.7741518 C156.617175,34.464135 154.086993,36.266335 150.553615,36.266335 C146.940338,36.266335 144.720879,34.6594473 144.365766,32.0493646 L148.085578,31.8540522 C148.316402,32.9637813 149.213063,33.5408404 150.562493,33.5408404 C151.88529,33.5408404 152.764196,32.9637813 152.781951,32.1558986 C152.764196,31.4723055 152.222648,31.0372917 151.033018,30.7975902 L148.671515,30.3270651 C146.008165,29.7943951 144.720879,28.4715981 144.729757,26.4296966 C144.720879,23.8018582 147.020238,22.1860927 150.509226,22.1860927 C153.953825,22.1860927 155.977971,23.7397134 156.315329,26.25214 Z" id="paaatterns"></path>
        </g>
    </g>
</svg>